{
.appVersion = "3258";
.formatVersion = 3;
date = "2024-04-19 11:50:45 +0000";
familyName = Brokken;
fontMaster = (
{
id = m01;
metricValues = (
{
over = 20;
pos = 892;
},
{
over = 20;
pos = 850;
},
{
over = 20;
pos = 650;
},
{
over = -20;
},
{
over = -20;
pos = -300;
}
);
name = Regular;
userData = {
GSCornerRadius = 15;
GSExtrudeAngle = 30;
GSExtrudeDontSubtract = 1;
GSExtrudeOffset = 15;
};
}
);
glyphs = (
{
glyphname = A;
lastChange = "2024-04-20 11:45:28 +0000";
layers = (
{
anchors = (
{
name = bottom;
pos = (390,0);
},
{
name = ogonek;
pos = (702,10);
},
{
name = top;
pos = (445,892);
}
);
layerId = m01;
shapes = (
{
closed = 1;
nodes = (
(123,170,l),
(107,778,l),
(399,889,l),
(342,592,l),
(357,0,l),
(152,-87,l),
(79,22,l)
);
},
{
closed = 1;
nodes = (
(664,710,l),
(299,598,l),
(370,847,l),
(762,889,l)
);
},
{
closed = 1;
nodes = (
(713,638,l),
(730,30,l),
(580,-50,l),
(506,30,l),
(494,216,l),
(480,808,l),
(762,889,l)
);
},
{
closed = 1;
nodes = (
(88,298,l),
(508,424,l),
(528,313,l),
(456,201,l),
(71,119,l),
(37,168,l)
);
}
);
width = 780;
}
);
unicode = 65;
},
{
glyphname = B;
lastChange = "2024-04-20 11:31:50 +0000";
layers = (
{
layerId = m01;
shapes = (
{
closed = 1;
nodes = (
(123,170,l),
(107,778,l),
(399,889,l),
(342,592,l),
(357,0,l),
(74,-81,l)
);
},
{
closed = 1;
nodes = (
(614,481,l),
(480,382,l),
(498,678,l),
(323,604,l),
(381,854,l),
(661,894,l),
(726,728,l)
);
},
{
closed = 1;
nodes = (
(497,18,l),
(155,-115,l),
(130,-36,l),
(187,157,l),
(467,197,l),
(622,51,l)
);
},
{
closed = 1;
nodes = (
(614,481,l),
(701,320,l),
(622,51,l),
(468,76,l),
(480,382,l)
);
},
{
closed = 1;
nodes = (
(90,435,l),
(510,560,l),
(512,462,l),
(438,334,l),
(72,256,l),
(39,305,l)
);
}
);
width = 780;
}
);
unicode = 66;
},
{
glyphname = C;
lastChange = "2024-04-20 12:16:54 +0000";
layers = (
{
anchors = (
{
name = bottom;
pos = (334,0);
},
{
name = top;
pos = (334,892);
}
);
layerId = m01;
shapes = (
{
closed = 1;
nodes = (
(88,-11,l),
(172,98,l),
(592,223,l),
(612,112,l),
(438,-81,l),
(159,-69,l)
);
},
{
closed = 1;
nodes = (
(291,309,l),
(357,0,l),
(88,-11,l),
(123,170,l),
(61,306,l)
);
},
{
closed = 1;
nodes = (
(202,771,l),
(622,897,l),
(642,786,l),
(468,592,l),
(104,592,l)
);
},
{
closed = 1;
nodes = (
(61,306,l),
(107,778,l),
(399,889,l),
(342,592,l),
(291,309,l)
);
}
);
width = 668;
}
);
unicode = 67;
},
{
glyphname = D;
lastChange = "2024-04-20 11:31:50 +0000";
layers = (
{
layerId = m01;
shapes = (
{
closed = 1;
nodes = (
(123,170,l),
(107,778,l),
(399,889,l),
(342,592,l),
(357,0,l),
(102,-67,l)
);
},
{
closed = 1;
nodes = (
(659,680,l),
(299,598,l),
(357,848,l),
(637,888,l),
(691,711,l)
);
},
{
closed = 1;
nodes = (
(691,711,l),
(657,301,l),
(559,22,l),
(189,-98,l),
(143,112,l),
(462,174,l),
(476,680,l)
);
},
{
closed = 1;
nodes = (
(70,787,l),
(490,913,l),
(510,802,l),
(336,608,l),
(71,566,l),
(8,609,l)
);
}
);
width = 780;
}
);
unicode = 68;
},
{
glyphname = E;
lastChange = "2024-04-20 11:51:32 +0000";
layers = (
{
anchors = (
{
name = bottom;
pos = (334,0);
},
{
name = ogonek;
pos = (601,10);
},
{
name = top;
pos = (319,885);
},
{
name = topleft;
pos = (20,850);
}
);
layerId = m01;
shapes = (
{
closed = 1;
nodes = (
(172,98,l),
(592,223,l),
(612,112,l),
(438,-81,l),
(74,-81,l)
);
},
{
closed = 1;
nodes = (
(123,170,l),
(107,778,l),
(399,889,l),
(342,592,l),
(357,0,l),
(74,-81,l)
);
},
{
closed = 1;
nodes = (
(202,771,l),
(622,897,l),
(642,786,l),
(468,592,l),
(119,592,l)
);
},
{
closed = 1;
nodes = (
(126,418,l),
(546,543,l),
(566,432,l),
(391,239,l),
(28,239,l)
);
}
);
width = 668;
}
);
unicode = 69;
},
{
glyphname = F;
lastChange = "2024-04-20 11:31:50 +0000";
layers = (
{
layerId = m01;
shapes = (
{
closed = 1;
nodes = (
(123,170,l),
(107,778,l),
(399,889,l),
(342,592,l),
(357,0,l),
(74,-81,l)
);
},
{
closed = 1;
nodes = (
(126,418,l),
(546,543,l),
(566,432,l),
(391,239,l),
(28,239,l)
);
},
{
closed = 1;
nodes = (
(126,735,l),
(622,897,l),
(642,786,l),
(468,592,l),
(126,579,l)
);
}
);
width = 668;
}
);
unicode = 70;
},
{
glyphname = G;
lastChange = "2024-04-20 11:31:50 +0000";
layers = (
{
layerId = m01;
shapes = (
{
closed = 1;
nodes = (
(357,0,l),
(342,592,l),
(399,889,l),
(107,778,l),
(123,170,l),
(74,-81,l)
);
},
{
closed = 1;
nodes = (
(632,6,l),
(646,176,l),
(180,114,l),
(215,-119,l)
);
},
{
closed = 1;
nodes = (
(741,-8,l),
(787,186,l),
(660,362,l),
(588,347,l),
(571,114,l),
(605,-44,l)
);
},
{
closed = 1;
nodes = (
(771,284,l),
(771,441,l),
(468,418,l),
(486,332,l),
(543,279,l)
);
},
{
closed = 1;
nodes = (
(771,729,l),
(543,680,l),
(540,554,l),
(694,493,l)
);
},
{
closed = 1;
nodes = (
(739,698,l),
(771,729,l),
(704,888,l),
(357,848,l),
(299,598,l)
);
}
);
width = 892;
}
);
unicode = 71;
},
{
glyphname = H;
lastChange = "2024-04-20 11:31:50 +0000";
layers = (
{
layerId = m01;
shapes = (
{
closed = 1;
nodes = (
(123,170,l),
(107,778,l),
(399,889,l),
(342,592,l),
(357,0,l),
(74,-81,l)
);
},
{
closed = 1;
nodes = (
(612,339,l),
(247,227,l),
(228,447,l),
(627,509,l)
);
},
{
closed = 1;
nodes = (
(713,638,l),
(730,30,l),
(438,-81,l),
(494,216,l),
(480,808,l),
(762,889,l)
);
}
);
width = 780;
}
);
unicode = 72;
},
{
glyphname = I;
lastChange = "2024-04-20 11:58:32 +0000";
layers = (
{
anchors = (
{
name = bottom;
pos = (223,0);
},
{
name = ogonek;
pos = (401,10);
},
{
name = top;
pos = (255,908);
},
{
name = topleft;
pos = (20,850);
}
);
layerId = m01;
shapes = (
{
closed = 1;
nodes = (
(123,170,l),
(107,778,l),
(399,889,l),
(342,592,l),
(357,0,l),
(74,-81,l)
);
},
{
closed = 1;
nodes = (
(364,749,l),
(153,683,l),
(153,844,l),
(399,889,l)
);
}
);
width = 446;
}
);
unicode = 73;
},
{
glyphname = J;
lastChange = "2024-04-20 11:31:50 +0000";
layers = (
{
layerId = m01;
shapes = (
{
closed = 1;
nodes = (
(673,-2,l),
(693,682,l),
(763,836,l),
(709,893,l),
(606,848,l),
(439,776,l),
(459,591,l),
(445,-2,l),
(499,-71,l)
);
},
{
closed = 1;
nodes = (
(578,228,l),
(146,44,l),
(177,-77,l),
(662,0,l)
);
},
{
closed = 1;
nodes = (
(363,90,l),
(273,347,l),
(201,361,l),
(74,186,l),
(120,-8,l),
(257,-44,l)
);
}
);
width = 766;
}
);
unicode = 74;
},
{
glyphname = K;
lastChange = "2024-04-20 11:31:50 +0000";
layers = (
{
layerId = m01;
shapes = (
{
closed = 1;
nodes = (
(123,170,l),
(107,778,l),
(399,889,l),
(342,592,l),
(357,0,l),
(74,-81,l)
);
},
{
closed = 1;
nodes = (
(386,415,l),
(520,371,l),
(731,61,l),
(744,-92,l),
(604,-131,l),
(299,265,l),
(253,332,l)
);
},
{
closed = 1;
nodes = (
(554,839,l),
(634,878,l),
(774,839,l),
(762,685,l),
(399,314,l),
(276,387,l)
);
},
{
closed = 1;
nodes = (
(74,421,l),
(494,547,l),
(514,436,l),
(442,323,l),
(56,242,l),
(23,291,l)
);
}
);
width = 780;
}
);
unicode = 75;
},
{
glyphname = L;
lastChange = "2024-04-20 11:31:50 +0000";
layers = (
{
layerId = m01;
shapes = (
{
closed = 1;
nodes = (
(172,98,l),
(592,223,l),
(612,112,l),
(438,-81,l),
(74,-81,l)
);
},
{
closed = 1;
nodes = (
(123,170,l),
(107,778,l),
(341,898,l),
(388,831,l),
(342,592,l),
(357,0,l),
(74,-81,l)
);
}
);
width = 626;
}
);
unicode = 76;
},
{
glyphname = M;
lastChange = "2024-04-20 11:31:50 +0000";
layers = (
{
layerId = m01;
shapes = (
{
closed = 1;
nodes = (
(123,170,l),
(107,778,l),
(399,889,l),
(385,814,l),
(342,592,l),
(357,0,l),
(153,-59,l),
(107,0,l)
);
},
{
closed = 1;
nodes = (
(491,-18,l),
(276,801,l),
(453,875,l),
(604,241,l)
);
},
{
closed = 1;
nodes = (
(649,802,l),
(845,872,l),
(1048,785,l),
(799,616,l),
(652,37,l),
(491,-18,l)
);
},
{
closed = 1;
nodes = (
(787,131,l),
(787,646,l),
(1048,785,l),
(998,592,l),
(1012,0,l),
(806,-59,l),
(751,62,l)
);
},
{
closed = 1;
nodes = (
(117,78,l),
(328,171,l),
(328,29,l),
(302,-44,l),
(99,-101,l),
(66,-52,l)
);
}
);
width = 1118;
}
);
unicode = 77;
},
{
glyphname = N;
lastChange = "2024-04-20 11:31:50 +0000";
layers = (
{
layerId = m01;
shapes = (
{
closed = 1;
nodes = (
(123,170,l),
(107,778,l),
(399,889,l),
(342,592,l),
(357,0,l),
(74,-81,l)
);
},
{
closed = 1;
nodes = (
(551,-74,l),
(163,837,l),
(399,889,l),
(642,194,l)
);
},
{
closed = 1;
nodes = (
(827,644,l),
(843,37,l),
(551,-74,l),
(608,222,l),
(593,814,l),
(876,896,l)
);
}
);
width = 892;
}
);
unicode = 78;
},
{
glyphname = O;
lastChange = "2024-04-20 11:37:33 +0000";
layers = (
{
anchors = (
{
name = bottom;
pos = (401,0);
},
{
name = center;
pos = (401,389);
},
{
name = ogonek;
pos = (722,11);
},
{
name = top;
pos = (428,909);
},
{
name = topleft;
pos = (22,778);
},
{
name = topright;
pos = (780,778);
}
);
layerId = m01;
shapes = (
{
closed = 1;
nodes = (
(399,889,l),
(329,636,l),
(357,0,l),
(128,81,l),
(123,170,l),
(107,778,l)
);
},
{
closed = 1;
nodes = (
(747,680,l),
(299,598,l),
(357,848,l),
(688,874,l),
(780,711,l)
);
},
{
closed = 1;
nodes = (
(754,-24,l),
(224,-81,l),
(143,112,l),
(563,103,l)
);
},
{
closed = 1;
nodes = (
(780,711,l),
(754,-24,l),
(528,61,l),
(564,680,l)
);
}
);
width = 806;
}
);
unicode = 79;
},
{
glyphname = P;
lastChange = "2024-04-20 11:31:50 +0000";
layers = (
{
layerId = m01;
shapes = (
{
closed = 1;
nodes = (
(123,170,l),
(107,778,l),
(399,889,l),
(342,592,l),
(357,0,l),
(74,-81,l)
);
},
{
closed = 1;
nodes = (
(671,698,l),
(299,598,l),
(357,848,l),
(637,888,l),
(703,729,l)
);
},
{
closed = 1;
nodes = (
(591,292,l),
(226,180,l),
(207,400,l),
(606,462,l)
);
},
{
closed = 1;
nodes = (
(703,729,l),
(591,292,l),
(437,353,l),
(476,680,l)
);
}
);
width = 668;
}
);
unicode = 80;
},
{
glyphname = Q;
lastChange = "2024-04-20 11:31:50 +0000";
layers = (
{
layerId = m01;
shapes = (
{
closed = 1;
nodes = (
(123,170,l),
(107,778,l),
(399,889,l),
(329,636,l),
(357,0,l),
(129,81,l)
);
},
{
closed = 1;
nodes = (
(811,680,l),
(299,598,l),
(357,848,l),
(753,874,l),
(844,711,l)
);
},
{
closed = 1;
nodes = (
(818,-24,l),
(223,-81,l),
(143,112,l),
(627,103,l)
);
},
{
closed = 1;
nodes = (
(844,711,l),
(818,-24,l),
(593,61,l),
(628,680,l)
);
},
{
closed = 1;
nodes = (
(417,292,l),
(570,255,l),
(606,120,l),
(771,-81,l),
(726,-148,l),
(602,-116,l),
(372,243,l)
);
}
);
width = 846;
}
);
unicode = 81;
},
{
glyphname = R;
lastChange = "2024-04-20 11:31:50 +0000";
layers = (
{
layerId = m01;
shapes = (
{
closed = 1;
nodes = (
(123,170,l),
(107,778,l),
(399,889,l),
(342,592,l),
(357,0,l),
(74,-81,l)
);
},
{
closed = 1;
nodes = (
(671,698,l),
(299,598,l),
(357,848,l),
(637,888,l),
(703,729,l)
);
},
{
closed = 1;
nodes = (
(591,292,l),
(226,180,l),
(207,400,l),
(606,462,l)
);
},
{
closed = 1;
nodes = (
(500,306,l),
(683,77,l),
(696,-77,l),
(556,-116,l),
(326,243,l)
);
},
{
closed = 1;
nodes = (
(703,729,l),
(591,292,l),
(437,353,l),
(476,680,l)
);
}
);
width = 706;
}
);
unicode = 82;
},
{
glyphname = S;
lastChange = "2024-04-20 12:27:26 +0000";
layers = (
{
anchors = (
{
name = bottom;
pos = (334,0);
},
{
name = top;
pos = (338,892);
}
);
layerId = m01;
shapes = (
{
closed = 1;
nodes = (
(53,98,l),
(247,173,l),
(566,28,l),
(318,-81,l),
(52,-45,l)
);
},
{
closed = 1;
nodes = (
(89,391,l),
(72,778,l),
(399,889,l),
(296,751,l),
(357,311,l),
(229,355,l)
);
},
{
closed = 1;
nodes = (
(91,418,l),
(489,513,l),
(592,432,l),
(441,294,l),
(88,338,l)
);
},
{
closed = 1;
nodes = (
(399,889,l),
(622,897,l),
(642,786,l),
(597,638,l),
(468,592,l),
(416,760,l),
(218,698,l),
(156,837,l)
);
},
{
closed = 1;
nodes = (
(318,-62,l),
(391,392,l),
(592,432,l),
(566,28,l)
);
}
);
width = 668;
}
);
unicode = 83;
},
{
glyphname = T;
lastChange = "2024-04-20 11:31:50 +0000";
layers = (
{
layerId = m01;
shapes = (
{
closed = 1;
nodes = (
(516,-3,l),
(550,70,l),
(509,167,l),
(498,753,l),
(286,786,l),
(302,178,l),
(269,0,l),
(334,-59,l)
);
},
{
closed = 1;
nodes = (
(63,604,l),
(390,659,l),
(713,681,l),
(768,778,l),
(712,889,l),
(81,801,l),
(0,653,l)
);
},
{
closed = 1;
nodes = (
(713,784,l),
(704,881,l),
(146,854,l),
(116,766,l)
);
}
);
width = 772;
}
);
unicode = 84;
},
{
glyphname = U;
lastChange = "2024-04-20 11:44:36 +0000";
layers = (
{
anchors = (
{
name = bottom;
pos = (390,0);
},
{
name = ogonek;
pos = (702,10);
},
{
name = top;
pos = (413,912);
},
{
name = topright;
pos = (760,850);
}
);
layerId = m01;
shapes = (
{
closed = 1;
nodes = (
(730,30,l),
(713,638,l),
(746,819,l),
(699,871,l),
(480,808,l),
(520,170,l),
(438,-81,l)
);
},
{
closed = 1;
nodes = (
(547,0,l),
(468,149,l),
(357,88,l),
(120,-98,l)
);
},
{
closed = 1;
nodes = (
(357,0,l),
(319,689,l),
(341,802,l),
(300,882,l),
(85,778,l),
(123,170,l),
(120,-98,l)
);
},
{
closed = 1;
nodes = (
(438,-81,l),
(501,43,l),
(167,-56,l),
(172,-140,l)
);
}
);
width = 780;
}
);
unicode = 85;
},
{
glyphname = V;
lastChange = "2024-04-20 11:31:50 +0000";
layers = (
{
layerId = m01;
shapes = (
{
closed = 1;
nodes = (
(539,714,l),
(539,778,l),
(724,883,l),
(788,883,l),
(869,778,l),
(497,-126,l),
(342,276,l),
(473,210,l)
);
},
{
closed = 1;
nodes = (
(249,30,l),
(39,718,l),
(239,831,l),
(273,789,l),
(273,684,l),
(302,602,l),
(502,43,l),
(497,-126,l)
);
},
{
closed = 1;
nodes = (
(239,889,l),
(358,792,l),
(314,701,l),
(111,642,l),
(39,718,l)
);
}
);
width = 872;
}
);
unicode = 86;
},
{
glyphname = W;
lastChange = "2024-04-20 11:31:50 +0000";
layers = (
{
layerId = m01;
shapes = (
{
closed = 1;
nodes = (
(499,483,l),
(458,600,l),
(518,600,l),
(543,559,l),
(624,453,l),
(439,-45,l),
(285,356,l),
(398,356,l)
);
},
{
closed = 1;
nodes = (
(192,111,l),
(0,784,l),
(183,897,l),
(232,861,l),
(232,757,l),
(396,144,l),
(439,-45,l),
(306,-45,l)
);
},
{
closed = 1;
nodes = (
(803,725,l),
(758,790,l),
(824,901,l),
(961,877,l),
(1047,749,l),
(823,-74,l),
(622,98,l),
(688,179,l)
);
},
{
closed = 1;
nodes = (
(588,98,l),
(400,588,l),
(439,690,l),
(517,711,l),
(586,677,l),
(609,602,l),
(809,124,l),
(823,-74,l),
(725,-74,l)
);
}
);
width = 1052;
}
);
unicode = 87;
},
{
glyphname = X;
lastChange = "2024-04-20 11:31:50 +0000";
layers = (
{
layerId = m01;
shapes = (
{
closed = 1;
nodes = (
(177,904,l),
(264,857,l),
(318,718,l),
(588,228,l),
(657,143,l),
(669,-10,l),
(557,-44,l),
(476,0,l),
(35,720,l),
(50,796,l)
);
},
{
closed = 1;
nodes = (
(415,793,l),
(596,908,l),
(656,873,l),
(677,831,l),
(641,651,l),
(581,496,l),
(398,466,l)
);
},
{
closed = 1;
nodes = (
(293,244,l),
(363,77,l),
(136,-51,l),
(76,-16,l),
(55,26,l),
(90,206,l),
(150,361,l),
(317,388,l)
);
},
{
closed = 1;
nodes = (
(84,854,l),
(177,904,l),
(265,856,l),
(318,717,l),
(189,675,l),
(99,787,l)
);
}
);
width = 668;
}
);
unicode = 88;
},
{
glyphname = Y;
lastChange = "2024-04-20 11:31:50 +0000";
layers = (
{
layerId = m01;
shapes = (
{
closed = 1;
nodes = (
(472,0,l),
(443,201,l),
(500,498,l),
(208,370,l),
(249,157,l),
(190,-81,l)
);
},
{
closed = 1;
nodes = (
(403,211,l),
(276,833,l),
(200,890,l),
(0,697,l),
(183,273,l)
);
},
{
closed = 1;
nodes = (
(694,738,l),
(569,909,l),
(438,841,l),
(344,409,l),
(463,316,l)
);
}
);
width = 698;
}
);
unicode = 89;
},
{
glyphname = Z;
lastChange = "2024-04-20 12:10:37 +0000";
layers = (
{
anchors = (
{
name = bottom;
pos = (446,0);
},
{
name = center;
pos = (446,425);
},
{
name = top;
pos = (437,892);
}
);
layerId = m01;
shapes = (
{
closed = 1;
nodes = (
(97,668,l),
(110,812,l),
(399,850,l),
(340,732,l),
(318,658,l),
(112,590,l)
);
},
{
closed = 1;
nodes = (
(798,674,l),
(223,714,l),
(399,850,l),
(774,869,l),
(791,820,l)
);
},
{
closed = 1;
nodes = (
(798,247,l),
(774,5,l),
(565,-12,l),
(532,169,l),
(614,280,l),
(734,258,l)
);
},
{
closed = 1;
nodes = (
(205,177,l),
(732,55,l),
(694,-31,l),
(95,-60,l),
(120,69,l)
);
},
{
closed = 1;
nodes = (
(694,873,l),
(798,674,l),
(298,12,l),
(120,39,l),
(97,143,l)
);
},
{
closed = 1;
nodes = (
(252,886,l),
(774,869,l),
(634,815,l),
(220,806,l)
);
}
);
width = 892;
}
);
unicode = 90;
},
{
glyphname = a;
lastChange = "2024-04-21 07:55:23 +0000";
layers = (
{
layerId = m01;
shapes = (
{
closed = 1;
nodes = (
(671,27,l),
(674,137,l),
(602,182,l),
(611,594,l),
(431,608,l),
(422,521,l),
(425,131,l),
(395,57,l),
(425,0,l)
);
},
{
closed = 1;
nodes = (
(253,413,l),
(317,445,l),
(300,479,l),
(294,555,l),
(294,664,l),
(105,645,l),
(52,594,l),
(106,399,l),
(165,365,l)
);
},
{
closed = 1;
nodes = (
(591,567,l),
(570,641,l),
(470,660,l),
(174,630,l),
(145,538,l),
(311,506,l),
(490,481,l)
);
},
{
closed = 1;
nodes = (
(363,411,l),
(228,347,l),
(71,256,l),
(52,101,l),
(105,-80,l),
(330,-27,l),
(454,75,l),
(463,211,l),
(356,181,l),
(260,119,l),
(205,228,l),
(220,273,l),
(383,253,l),
(438,247,l),
(462,336,l)
);
}
);
width = 674;
}
);
unicode = 97;
},
{
glyphname = b;
lastChange = "2024-04-20 13:36:48 +0000";
layers = (
{
layerId = m01;
shapes = (
{
closed = 1;
nodes = (
(358,57,l),
(328,131,l),
(328,767,l),
(179,835,l),
(117,792,l),
(125,130,l),
(53,85,l),
(56,-25,l),
(328,0,l)
);
},
{
closed = 1;
nodes = (
(300,399,l),
(355,405,l),
(362,440,l),
(497,485,l),
(444,222,l),
(360,164,l),
(231,275,l),
(204,134,l),
(290,31,l),
(412,4,l),
(638,78,l),
(681,296,l),
(659,507,l),
(594,631,l),
(367,662,l),
(268,587,l)
);
},
{
closed = 1;
nodes = (
(71,700,l),
(183,684,l),
(265,721,l),
(291,819,l),
(184,853,l),
(40,819,l)
);
}
);
width = 701;
}
);
unicode = 98;
},
{
glyphname = c;
lastChange = "2024-04-21 07:48:42 +0000";
layers = (
{
layerId = m01;
shapes = (
{
closed = 1;
nodes = (
(236,15,l),
(322,96,l),
(258,356,l),
(264,572,l),
(206,586,l),
(144,565,l),
(66,442,l),
(47,293,l),
(98,0,l)
);
},
{
closed = 1;
nodes = (
(338,0,l),
(512,10,l),
(499,102,l),
(467,173,l),
(134,118,l),
(190,-33,l)
);
},
{
closed = 1;
nodes = (
(474,527,l),
(474,653,l),
(391,651,l),
(261,655,l),
(133,630,l),
(67,521,l),
(219,496,l)
);
},
{
closed = 1;
nodes = (
(553,502,l),
(534,642,l),
(403,611,l),
(347,557,l),
(394,445,l),
(453,407,l),
(553,407,l)
);
},
{
closed = 1;
nodes = (
(392,117,l),
(463,-11,l),
(562,31,l),
(560,232,l),
(486,246,l),
(413,207,l)
);
}
);
width = 562;
}
);
unicode = 99;
},
{
glyphname = d;
lastChange = "2024-04-20 13:38:44 +0000";
layers = (
{
layerId = m01;
shapes = (
{
closed = 1;
nodes = (
(696,71,l),
(699,181,l),
(627,226,l),
(636,792,l),
(476,786,l),
(420,708,l),
(423,164,l),
(393,90,l),
(423,33,l)
);
},
{
closed = 1;
nodes = (
(376,659,l),
(122,595,l),
(84,504,l),
(50,134,l),
(103,-47,l),
(328,6,l),
(452,108,l),
(524,345,l),
(354,214,l),
(311,149,l),
(271,473,l),
(286,518,l),
(396,501,l),
(451,495,l),
(475,584,l)
);
},
{
closed = 1;
nodes = (
(549,855,l),
(442,821,l),
(420,708,l),
(550,686,l),
(662,702,l),
(693,821,l)
);
}
);
width = 699;
}
);
unicode = 100;
},
{
glyphname = e;
lastChange = "2024-04-20 16:48:02 +0000";
layers = (
{
layerId = m01;
shapes = (
{
closed = 1;
nodes = (
(70,528,l),
(50,395,l),
(62,108,l),
(290,0,l),
(299,87,l),
(232,148,l),
(274,501,l),
(304,575,l),
(274,632,l)
);
},
{
closed = 1;
nodes = (
(441,195,l),
(453,138,l),
(357,87,l),
(357,8,l),
(380,-34,l),
(615,9,l),
(669,14,l),
(615,209,l),
(526,256,l)
);
},
{
closed = 1;
nodes = (
(95,110,l),
(62,108,l),
(251,-52,l),
(526,40,l),
(555,132,l),
(410,102,l),
(231,127,l)
);
},
{
closed = 1;
nodes = (
(383,240,l),
(555,330,l),
(628,376,l),
(647,531,l),
(562,662,l),
(369,659,l),
(274,632,l),
(208,501,l),
(255,413,l),
(459,531,l),
(489,385,l),
(479,359,l),
(316,379,l),
(261,385,l),
(237,296,l)
);
},
{
closed = 1;
nodes = (
(115,509,l),
(383,567,l),
(369,659,l),
(131,611,l)
);
}
);
width = 669;
}
);
unicode = 101;
},
{
glyphname = f;
lastChange = "2024-04-20 14:16:52 +0000";
layers = (
{
layerId = m01;
shapes = (
{
closed = 1;
nodes = (
(399,-14,l),
(402,96,l),
(330,141,l),
(336,650,l),
(212,770,l),
(173,823,l),
(117,745,l),
(126,79,l),
(96,5,l),
(126,-52,l)
);
},
{
closed = 1;
nodes = (
(87,406,l),
(385,484,l),
(470,538,l),
(450,649,l),
(50,582,l),
(50,444,l)
);
},
{
closed = 1;
nodes = (
(421,723,l),
(452,842,l),
(246,892,l),
(139,858,l),
(117,745,l),
(211,731,l)
);
}
);
width = 470;
}
);
unicode = 102;
},
{
glyphname = g;
lastChange = "2024-04-21 07:42:22 +0000";
layers = (
{
layerId = m01;
shapes = (
{
closed = 1;
nodes = (
(605,418,l),
(583,630,l),
(521,661,l),
(415,644,l),
(411,398,l),
(399,278,l),
(399,102,l),
(559,51,l)
);
},
{
closed = 1;
nodes = (
(489,-301,l),
(447,-105,l),
(234,-175,l),
(254,-79,l),
(190,-43,l),
(114,-45,l),
(37,-93,l),
(129,-194,l),
(268,-316,l)
);
},
{
closed = 1;
nodes = (
(338,33,l),
(559,51,l),
(546,143,l),
(514,214,l),
(134,151,l),
(178,-3,l)
);
},
{
closed = 1;
nodes = (
(618,-100,l),
(576,264,l),
(491,169,l),
(429,164,l),
(445,-65,l),
(424,-146,l),
(361,-164,l),
(392,-212,l),
(434,-275,l),
(591,-281,l)
);
},
{
closed = 1;
nodes = (
(236,48,l),
(322,129,l),
(284,425,l),
(264,572,l),
(206,586,l),
(144,565,l),
(66,442,l),
(73,278,l),
(98,33,l)
);
},
{
closed = 1;
nodes = (
(521,535,l),
(521,661,l),
(261,655,l),
(133,630,l),
(67,521,l),
(219,496,l)
);
},
{
closed = 1;
nodes = (
(563,443,l),
(645,456,l),
(690,541,l),
(691,659,l),
(499,634,l),
(502,581,l)
);
}
);
width = 668;
}
);
unicode = 103;
},
{
glyphname = h;
lastChange = "2024-04-20 16:59:33 +0000";
layers = (
{
layerId = m01;
shapes = (
{
closed = 1;
nodes = (
(399,-14,l),
(402,96,l),
(330,141,l),
(336,650,l),
(339,757,l),
(173,823,l),
(117,745,l),
(126,79,l),
(96,5,l),
(126,-52,l)
);
},
{
closed = 1;
nodes = (
(339,757,l),
(339,854,l),
(200,891,l),
(93,857,l),
(71,744,l),
(165,730,l)
);
},
{
closed = 1;
nodes = (
(661,178,l),
(678,635,l),
(523,660,l),
(421,651,l),
(331,516,l),
(330,474,l),
(423,530,l),
(452,517,l),
(468,145,l),
(452,-12,l),
(593,0,l),
(667,54,l),
(698,81,l)
);
}
);
width = 698;
}
);
unicode = 104;
},
{
glyphname = i;
lastChange = "2024-04-20 13:55:04 +0000";
layers = (
{
anchors = (
{
name = bottom;
pos = (677,0);
},
{
name = right;
pos = (1048,413);
},
{
name = top;
pos = (677,650);
}
);
layerId = m01;
shapes = (
{
closed = 1;
nodes = (
(343,9,l),
(341,99,l),
(286,175,l),
(287,407,l),
(296,652,l),
(26,600,l),
(15,503,l),
(46,459,l),
(93,445,l),
(92,157,l),
(52,113,l),
(52,31,l),
(123,-32,l)
);
},
{
closed = 1;
nodes = (
(53,781,l),
(114,687,l),
(254,692,l),
(355,778,l),
(317,859,l),
(250,924,l),
(113,873,l)
);
}
);
width = 379;
}
);
unicode = 105;
},
{
glyphname = k;
lastChange = "2024-04-20 17:12:45 +0000";
layers = (
{
layerId = m01;
shapes = (
{
closed = 1;
nodes = (
(399,-14,l),
(402,96,l),
(330,141,l),
(336,485,l),
(338,563,l),
(341,670,l),
(175,736,l),
(119,658,l),
(126,79,l),
(96,5,l),
(126,-52,l)
);
},
{
closed = 1;
nodes = (
(637,24,l),
(665,133,l),
(539,309,l),
(509,326,l),
(392,367,l),
(312,362,l),
(243,290,l),
(408,243,l),
(478,-29,l),
(579,-58,l)
);
},
{
closed = 1;
nodes = (
(341,670,l),
(341,767,l),
(202,804,l),
(95,770,l),
(73,657,l),
(167,643,l)
);
},
{
closed = 1;
nodes = (
(668,474,l),
(673,539,l),
(567,586,l),
(510,614,l),
(458,566,l),
(408,494,l),
(312,362,l),
(509,326,l)
);
},
{
closed = 1;
nodes = (
(673,539,l),
(661,630,l),
(592,666,l),
(481,665,l),
(417,601,l),
(481,536,l),
(542,456,l)
);
},
{
closed = 1;
nodes = (
(524,106,l),
(516,4,l),
(579,-58,l),
(696,-31,l),
(760,33,l),
(696,98,l),
(553,58,l)
);
}
);
width = 726;
}
);
unicode = 107;
},
{
glyphname = l;
lastChange = "2024-04-20 16:50:35 +0000";
layers = (
{
layerId = m01;
shapes = (
{
closed = 1;
nodes = (
(399,-14,l),
(402,96,l),
(330,141,l),
(336,650,l),
(339,757,l),
(173,823,l),
(117,745,l),
(126,79,l),
(96,5,l),
(126,-52,l)
);
},
{
closed = 1;
nodes = (
(339,757,l),
(339,854,l),
(200,891,l),
(93,857,l),
(71,744,l),
(165,730,l)
);
}
);
width = 402;
}
);
unicode = 108;
},
{
glyphname = m;
lastChange = "2024-04-20 13:54:47 +0000";
layers = (
{
layerId = m01;
shapes = (
{
closed = 1;
nodes = (
(640,178,l),
(657,635,l),
(502,660,l),
(400,651,l),
(310,516,l),
(309,474,l),
(402,530,l),
(431,517,l),
(447,145,l),
(431,-12,l),
(646,54,l),
(677,81,l)
);
},
{
closed = 1;
nodes = (
(379,9,l),
(377,99,l),
(322,175,l),
(323,407,l),
(332,652,l),
(26,600,l),
(15,503,l),
(46,459,l),
(93,445,l),
(92,157,l),
(52,113,l),
(52,31,l),
(123,-32,l)
);
},
{
closed = 1;
nodes = (
(962,178,l),
(979,635,l),
(824,660,l),
(722,651,l),
(632,516,l),
(631,474,l),
(724,530,l),
(753,517,l),
(769,145,l),
(753,-12,l),
(894,0,l),
(968,54,l),
(999,81,l)
);
}
);
width = 999;
}
);
unicode = 109;
},
{
glyphname = n;
lastChange = "2024-04-20 13:54:37 +0000";
layers = (
{
anchors = (
{
name = bottom;
pos = (677,0);
},
{
name = right;
pos = (1048,413);
},
{
name = top;
pos = (677,650);
}
);
layerId = m01;
shapes = (
{
closed = 1;
nodes = (
(640,178,l),
(657,635,l),
(502,660,l),
(400,651,l),
(310,516,l),
(309,474,l),
(402,530,l),
(431,517,l),
(447,145,l),
(431,-12,l),
(597,12,l),
(646,54,l),
(677,81,l)
);
},
{
closed = 1;
nodes = (
(379,9,l),
(377,99,l),
(322,175,l),
(323,407,l),
(332,652,l),
(26,600,l),
(15,503,l),
(46,459,l),
(93,445,l),
(92,157,l),
(52,113,l),
(52,31,l),
(123,-32,l)
);
}
);
width = 677;
}
);
unicode = 110;
},
{
glyphname = o;
lastChange = "2024-04-20 13:58:46 +0000";
layers = (
{
layerId = m01;
shapes = (
{
closed = 1;
nodes = (
(236,15,l),
(322,96,l),
(284,308,l),
(264,572,l),
(206,586,l),
(144,565,l),
(66,442,l),
(73,245,l),
(98,0,l)
);
},
{
closed = 1;
nodes = (
(546,110,l),
(514,181,l),
(134,118,l),
(190,-33,l),
(338,0,l),
(559,18,l)
);
},
{
closed = 1;
nodes = (
(521,535,l),
(521,661,l),
(261,655,l),
(133,630,l),
(67,521,l),
(219,496,l)
);
},
{
closed = 1;
nodes = (
(605,418,l),
(583,630,l),
(521,661,l),
(415,644,l),
(411,398,l),
(366,207,l),
(399,69,l),
(559,18,l)
);
}
);
width = 605;
}
);
unicode = 111;
},
{
glyphname = p;
lastChange = "2024-04-20 14:02:53 +0000";
layers = (
{
layerId = m01;
shapes = (
{
closed = 1;
nodes = (
(59,668,l),
(56,558,l),
(128,513,l),
(120,-149,l),
(182,-192,l),
(331,-124,l),
(331,512,l),
(361,586,l),
(331,643,l)
);
},
{
closed = 1;
nodes = (
(370,-19,l),
(618,38,l),
(683,162,l),
(705,373,l),
(662,591,l),
(436,665,l),
(293,612,l),
(207,509,l),
(234,368,l),
(363,479,l),
(468,447,l),
(521,184,l),
(365,203,l),
(312,158,l),
(303,244,l),
(271,56,l)
);
},
{
closed = 1;
nodes = (
(184,-175,l),
(291,-141,l),
(265,-43,l),
(183,-6,l),
(71,-22,l),
(40,-141,l)
);
}
);
width = 705;
}
);
unicode = 112;
},
{
glyphname = q;
lastChange = "2024-04-20 14:03:16 +0000";
layers = (
{
layerId = m01;
shapes = (
{
closed = 1;
nodes = (
(363,586,l),
(393,512,l),
(393,-222,l),
(542,-290,l),
(604,-247,l),
(596,513,l),
(668,558,l),
(665,668,l),
(393,643,l)
);
},
{
closed = 1;
nodes = (
(421,244,l),
(366,238,l),
(359,203,l),
(224,158,l),
(277,421,l),
(361,479,l),
(490,368,l),
(517,509,l),
(431,612,l),
(309,639,l),
(83,565,l),
(40,347,l),
(62,136,l),
(127,12,l),
(354,-19,l),
(453,56,l)
);
},
{
closed = 1;
nodes = (
(653,-120,l),
(541,-104,l),
(459,-141,l),
(433,-239,l),
(540,-273,l),
(684,-239,l)
);
}
);
width = 684;
}
);
unicode = 113;
},
{
glyphname = r;
lastChange = "2024-04-20 17:13:59 +0000";
layers = (
{
layerId = m01;
shapes = (
{
closed = 1;
nodes = (
(399,13,l),
(402,123,l),
(330,168,l),
(336,425,l),
(339,532,l),
(173,598,l),
(117,520,l),
(126,106,l),
(96,32,l),
(126,-25,l)
);
},
{
closed = 1;
nodes = (
(339,532,l),
(339,629,l),
(200,666,l),
(93,632,l),
(71,519,l),
(165,505,l)
);
},
{
closed = 1;
nodes = (
(562,394,l),
(631,538,l),
(635,637,l),
(480,662,l),
(378,653,l),
(288,518,l),
(287,476,l),
(380,532,l),
(409,519,l),
(411,463,l)
);
}
);
width = 635;
}
);
unicode = 114;
},
{
glyphname = s;
lastChange = "2024-04-21 07:49:46 +0000";
layers = (
{
layerId = m01;
shapes = (
{
closed = 1;
nodes = (
(49,137,l),
(243,212,l),
(562,67,l),
(314,-42,l),
(48,-6,l)
);
},
{
closed = 1;
nodes = (
(82,263,l),
(66,570,l),
(393,681,l),
(264,538,l),
(294,264,l),
(222,285,l)
);
},
{
closed = 1;
nodes = (
(85,343,l),
(483,438,l),
(586,357,l),
(435,219,l),
(82,263,l)
);
},
{
closed = 1;
nodes = (
(375,673,l),
(598,681,l),
(618,570,l),
(559,508,l),
(430,462,l),
(392,544,l),
(194,482,l),
(132,621,l)
);
},
{
closed = 1;
nodes = (
(353,-21,l),
(429,410,l),
(586,357,l),
(562,67,l)
);
}
);
width = 618;
}
);
unicode = 115;
},
{
glyphname = t;
lastChange = "2024-04-20 14:16:05 +0000";
layers = (
{
layerId = m01;
shapes = (
{
closed = 1;
nodes = (
(218,89,l),
(350,233,l),
(353,723,l),
(301,792,l),
(172,831,l),
(118,785,l),
(110,93,l),
(166,15,l)
);
},
{
closed = 1;
nodes = (
(415,19,l),
(382,137,l),
(273,166,l),
(110,93,l),
(132,-20,l),
(239,-54,l)
);
},
{
closed = 1;
nodes = (
(458,161,l),
(382,179,l),
(297,110,l),
(329,82,l),
(381,16,l),
(434,24,l)
);
},
{
closed = 1;
nodes = (
(477,504,l),
(497,615,l),
(412,669,l),
(77,589,l),
(40,551,l),
(109,427,l)
);
}
);
width = 506;
}
);
unicode = 116;
},
{
glyphname = u;
lastChange = "2024-04-20 14:01:02 +0000";
layers = (
{
layerId = m01;
shapes = (
{
closed = 1;
nodes = (
(52,450,l),
(35,-7,l),
(190,-32,l),
(292,-23,l),
(382,112,l),
(383,154,l),
(290,98,l),
(261,111,l),
(245,483,l),
(261,640,l),
(95,616,l),
(46,574,l),
(15,547,l)
);
},
{
closed = 1;
nodes = (
(313,619,l),
(315,529,l),
(370,453,l),
(369,221,l),
(360,-24,l),
(666,28,l),
(677,125,l),
(646,169,l),
(599,183,l),
(600,471,l),
(640,515,l),
(640,597,l),
(569,660,l)
);
}
);
width = 668;
}
);
unicode = 117;
},
{
glyphname = v;
lastChange = "2024-04-21 07:50:43 +0000";
layers = (
{
layerId = m01;
shapes = (
{
closed = 1;
nodes = (
(253,650,l),
(371,614,l),
(363,494,l),
(131,429,l),
(157,627,l)
);
},
{
closed = 1;
nodes = (
(157,627,l),
(273,609,l),
(477,-21,l),
(353,-21,l),
(207,32,l),
(131,429,l),
(50,543,l)
);
},
{
closed = 1;
nodes = (
(668,483,l),
(559,45,l),
(418,10,l),
(415,76,l),
(428,362,l),
(493,622,l),
(609,640,l),
(703,609,l)
);
}
);
width = 703;
}
);
unicode = 118;
},
{
glyphname = w;
lastChange = "2024-04-21 07:53:01 +0000";
layers = (
{
layerId = m01;
shapes = (
{
closed = 1;
nodes = (
(253,650,l),
(371,614,l),
(363,494,l),
(131,429,l),
(157,627,l)
);
},
{
closed = 1;
nodes = (
(157,627,l),
(273,609,l),
(477,-21,l),
(353,-21,l),
(207,32,l),
(131,429,l),
(50,543,l)
);
},
{
closed = 1;
nodes = (
(668,483,l),
(559,45,l),
(418,10,l),
(415,76,l),
(428,362,l),
(493,622,l),
(609,640,l),
(703,609,l)
);
},
{
closed = 1;
nodes = (
(582,627,l),
(698,609,l),
(902,-21,l),
(778,-21,l),
(632,32,l),
(621,144,l),
(687,195,l)
);
},
{
closed = 1;
nodes = (
(1093,483,l),
(984,45,l),
(843,10,l),
(840,76,l),
(853,362,l),
(918,622,l),
(1034,640,l),
(1128,609,l)
);
}
);
width = 1128;
}
);
unicode = 119;
},
{
glyphname = x;
lastChange = "2024-04-20 17:17:21 +0000";
layers = (
{
layerId = m01;
shapes = (
{
closed = 1;
nodes = (
(260,686,l),
(347,639,l),
(401,500,l),
(588,228,l),
(657,143,l),
(669,-10,l),
(557,-44,l),
(476,0,l),
(118,502,l),
(133,578,l)
);
},
{
closed = 1;
nodes = (
(453,575,l),
(634,690,l),
(694,655,l),
(715,613,l),
(679,433,l),
(622,361,l),
(358,350,l)
);
},
{
closed = 1;
nodes = (
(293,143,l),
(294,56,l),
(136,-51,l),
(76,-16,l),
(55,26,l),
(90,206,l),
(165,298,l),
(332,325,l)
);
},
{
closed = 1;
nodes = (
(167,636,l),
(260,686,l),
(348,638,l),
(401,499,l),
(272,457,l),
(182,569,l)
);
}
);
width = 1077;
}
);
unicode = 120;
},
{
glyphname = y;
lastChange = "2024-04-21 07:49:18 +0000";
layers = (
{
layerId = m01;
shapes = (
{
closed = 1;
nodes = (
(253,650,l),
(371,614,l),
(363,494,l),
(131,429,l),
(157,627,l)
);
},
{
closed = 1;
nodes = (
(157,627,l),
(273,609,l),
(477,-21,l),
(353,-21,l),
(207,32,l),
(131,429,l),
(50,543,l)
);
},
{
closed = 1;
nodes = (
(668,483,l),
(559,45,l),
(418,10,l),
(415,76,l),
(428,362,l),
(493,622,l),
(609,640,l),
(703,609,l)
);
},
{
closed = 1;
nodes = (
(437,116,l),
(559,45,l),
(508,-128,l),
(355,-281,l),
(172,-304,l),
(106,-193,l),
(203,-95,l),
(355,-178,l),
(360,62,l)
);
}
);
width = 703;
}
);
unicode = 121;
},
{
glyphname = zero;
lastChange = "2024-04-20 11:31:50 +0000";
layers = (
{
layerId = m01;
shapes = (
{
closed = 1;
nodes = (
(107,212,l),
(164,779,l),
(457,890,l),
(357,599,l),
(357,0,l),
(111,85,l)
);
},
{
closed = 1;
nodes = (
(731,609,l),
(357,599,l),
(414,849,l),
(672,804,l),
(763,640,l)
);
},
{
closed = 1;
nodes = (
(706,97,l),
(223,-81,l),
(143,112,l),
(480,183,l)
);
},
{
closed = 1;
nodes = (
(763,640,l),
(706,97,l),
(480,183,l),
(548,609,l)
);
}
);
width = 786;
}
);
unicode = 48;
},
{
glyphname = one;
lastChange = "2024-04-20 12:14:40 +0000";
layers = (
{
layerId = m01;
shapes = (
{
closed = 1;
nodes = (
(474,69,l),
(531,576,l),
(517,752,l),
(447,708,l),
(343,752,l),
(279,708,l),
(306,671,l),
(265,-42,l),
(420,0,l)
);
},
{
closed = 1;
nodes = (
(221,-108,l),
(509,-28,l),
(532,63,l),
(517,153,l),
(222,74,l),
(187,-48,l)
);
},
{
closed = 1;
nodes = (
(527,622,l),
(527,796,l),
(302,762,l),
(261,757,l),
(160,563,l),
(180,452,l)
);
},
{
closed = 1;
nodes = (
(527,796,l),
(342,836,l),
(317,720,l),
(493,671,l)
);
}
);
width = 668;
}
);
unicode = 49;
},
{
glyphname = two;
lastChange = "2024-04-20 12:14:16 +0000";
layers = (
{
layerId = m01;
shapes = (
{
closed = 1;
nodes = (
(277,-18,l),
(347,198,l),
(773,440,l),
(769,633,l),
(666,831,l),
(539,518,l),
(98,259,l),
(76,113,l),
(74,-89,l)
);
},
{
closed = 1;
nodes = (
(695,26,l),
(732,112,l),
(183,147,l),
(99,40,l),
(74,-89,l)
);
},
{
closed = 1;
nodes = (
(259,412,l),
(281,487,l),
(381,778,l),
(89,667,l),
(79,596,l),
(53,344,l)
);
},
{
closed = 1;
nodes = (
(758,70,l),
(783,311,l),
(719,322,l),
(653,322,l),
(516,233,l),
(549,52,l)
);
},
{
closed = 1;
nodes = (
(617,761,l),
(694,850,l),
(184,760,l),
(168,682,l)
);
},
{
closed = 1;
nodes = (
(762,779,l),
(694,850,l),
(381,778,l),
(206,641,l),
(769,633,l)
);
}
);
width = 800;
}
);
unicode = 50;
},
{
glyphname = three;
lastChange = "2024-04-20 11:31:50 +0000";
layers = (
{
layerId = m01;
shapes = (
{
closed = 1;
nodes = (
(614,481,l),
(480,382,l),
(498,678,l),
(323,604,l),
(381,854,l),
(661,894,l),
(727,728,l)
);
},
{
closed = 1;
nodes = (
(498,18,l),
(154,-116,l),
(130,-36,l),
(188,157,l),
(468,197,l),
(622,51,l)
);
},
{
closed = 1;
nodes = (
(614,481,l),
(701,320,l),
(622,51,l),
(468,76,l),
(480,382,l)
);
},
{
closed = 1;
nodes = (
(341,530,l),
(510,560,l),
(511,462,l),
(524,340,l),
(324,351,l),
(290,400,l)
);
},
{
closed = 1;
nodes = (
(531,658,l),
(111,532,l),
(91,644,l),
(266,837,l),
(615,837,l)
);
}
);
width = 728;
}
);
unicode = 51;
},
{
glyphname = four;
lastChange = "2024-04-20 11:31:50 +0000";
layers = (
{
layerId = m01;
shapes = (
{
closed = 1;
nodes = (
(643,419,l),
(207,297,l),
(241,358,l),
(581,818,l),
(529,864,l),
(366,828,l),
(3,368,l),
(60,132,l),
(617,228,l),
(659,339,l)
);
},
{
closed = 1;
nodes = (
(580,8,l),
(566,600,l),
(614,865,l),
(365,710,l),
(347,178,l),
(298,-73,l)
);
}
);
width = 668;
}
);
unicode = 52;
},
{
glyphname = five;
lastChange = "2024-04-20 11:31:50 +0000";
layers = (
{
layerId = m01;
shapes = (
{
closed = 1;
nodes = (
(498,18,l),
(154,-116,l),
(130,-36,l),
(188,157,l),
(468,197,l),
(622,51,l)
);
},
{
closed = 1;
nodes = (
(659,484,l),
(701,320,l),
(622,51,l),
(468,76,l),
(480,382,l)
);
},
{
closed = 1;
nodes = (
(107,378,l),
(517,556,l),
(659,484,l),
(586,357,l),
(480,292,l),
(436,322,l),
(96,243,l),
(63,292,l)
);
},
{
closed = 1;
nodes = (
(107,378,l),
(107,778,l),
(399,889,l),
(342,592,l),
(335,403,l)
);
},
{
closed = 1;
nodes = (
(496,641,l),
(498,678,l),
(323,604,l),
(381,854,l),
(661,894,l),
(727,728,l),
(700,670,l)
);
}
);
width = 728;
}
);
unicode = 53;
},
{
glyphname = six;
lastChange = "2024-04-20 11:31:50 +0000";
layers = (
{
layerId = m01;
shapes = (
{
closed = 1;
nodes = (
(123,170,l),
(107,778,l),
(399,889,l),
(342,592,l),
(357,0,l),
(95,-80,l)
);
},
{
closed = 1;
nodes = (
(498,18,l),
(154,-116,l),
(130,-36,l),
(188,157,l),
(468,197,l),
(622,51,l)
);
},
{
closed = 1;
nodes = (
(614,481,l),
(701,320,l),
(622,51,l),
(468,76,l),
(480,382,l)
);
},
{
closed = 1;
nodes = (
(90,434,l),
(559,571,l),
(648,492,l),
(701,320,l),
(487,323,l),
(480,382,l),
(443,343,l),
(72,256,l),
(39,304,l)
);
},
{
closed = 1;
nodes = (
(494,627,l),
(498,678,l),
(323,604,l),
(381,854,l),
(661,894,l),
(727,728,l),
(701,671,l)
);
}
);
width = 728;
}
);
unicode = 54;
},
{
glyphname = seven;
lastChange = "2024-04-20 11:31:50 +0000";
layers = (
{
layerId = m01;
shapes = (
{
closed = 1;
nodes = (
(447,69,l),
(386,10,l),
(152,-49,l),
(455,662,l),
(265,595,l),
(338,839,l),
(618,879,l),
(684,712,l)
);
},
{
closed = 1;
nodes = (
(70,504,l),
(64,762,l),
(356,874,l),
(299,577,l),
(300,551,l)
);
},
{
closed = 1;
nodes = (
(225,398,l),
(684,504,l),
(645,339,l),
(599,278,l),
(142,219,l)
);
}
);
width = 728;
}
);
unicode = 55;
},
{
glyphname = eight;
lastChange = "2024-04-20 11:31:50 +0000";
layers = (
{
layerId = m01;
shapes = (
{
closed = 1;
nodes = (
(614,481,l),
(480,382,l),
(498,678,l),
(166,604,l),
(224,854,l),
(661,894,l),
(727,728,l)
);
},
{
closed = 1;
nodes = (
(614,481,l),
(701,320,l),
(622,51,l),
(468,76,l),
(480,382,l)
);
},
{
closed = 1;
nodes = (
(144,382,l),
(278,481,l),
(261,186,l),
(597,250,l),
(538,0,l),
(113,-68,l),
(32,136,l)
);
},
{
closed = 1;
nodes = (
(144,382,l),
(57,544,l),
(136,812,l),
(291,788,l),
(278,481,l)
);
},
{
closed = 1;
nodes = (
(209,478,l),
(518,574,l),
(538,463,l),
(364,269,l),
(126,300,l)
);
}
);
width = 728;
}
);
unicode = 56;
},
{
glyphname = nine;
lastChange = "2024-04-20 11:31:50 +0000";
layers = (
{
layerId = m01;
shapes = (
{
closed = 1;
nodes = (
(642,609,l),
(597,51,l),
(384,-31,l),
(359,73,l),
(410,238,l),
(409,779,l),
(649,839,l)
);
},
{
closed = 1;
nodes = (
(236,824,l),
(559,878,l),
(636,814,l),
(490,653,l),
(216,680,l),
(112,791,l)
);
},
{
closed = 1;
nodes = (
(151,298,l),
(64,459,l),
(112,791,l),
(266,766,l),
(286,397,l)
);
},
{
closed = 1;
nodes = (
(548,387,l),
(200,249,l),
(86,294,l),
(64,459,l),
(247,463,l),
(290,443,l),
(566,565,l),
(599,517,l)
);
},
{
closed = 1;
nodes = (
(314,198,l),
(328,147,l),
(502,220,l),
(469,44,l),
(164,-70,l),
(99,97,l),
(124,153,l)
);
}
);
width = 698;
}
);
unicode = 57;
},
{
glyphname = period;
lastChange = "2024-04-20 11:31:50 +0000";
layers = (
{
layerId = m01;
shapes = (
{
closed = 1;
nodes = (
(236,132,l),
(241,14,l),
(322,-49,l),
(462,-17,l),
(452,67,l),
(364,180,l)
);
}
);
width = 668;
}
);
unicode = 46;
},
{
glyphname = comma;
lastChange = "2024-04-20 11:31:50 +0000";
layers = (
{
layerId = m01;
shapes = (
{
closed = 1;
nodes = (
(416,-155,l),
(461,18,l),
(300,55,l),
(325,-63,l),
(286,-76,l),
(243,-201,l),
(343,-257,l)
);
},
{
closed = 1;
nodes = (
(461,18,l),
(467,137,l),
(332,187,l),
(240,71,l),
(230,-15,l),
(376,-48,l)
);
}
);
width = 668;
}
);
unicode = 44;
},
{
glyphname = colon;
lastChange = "2024-04-20 11:31:50 +0000";
layers = (
{
layerId = m01;
shapes = (
{
closed = 1;
nodes = (
(236,132,l),
(241,14,l),
(322,-49,l),
(462,-17,l),
(452,67,l),
(364,180,l)
);
},
{
closed = 1;
nodes = (
(462,370,l),
(457,487,l),
(376,551,l),
(236,519,l),
(246,435,l),
(333,322,l)
);
}
);
width = 668;
}
);
unicode = 58;
},
{
glyphname = semicolon;
lastChange = "2024-04-20 11:31:50 +0000";
layers = (
{
layerId = m01;
shapes = (
{
closed = 1;
nodes = (
(414,-137,l),
(458,22,l),
(302,56,l),
(327,-53,l),
(289,-64,l),
(248,-179,l),
(345,-231,l)
);
},
{
closed = 1;
nodes = (
(458,22,l),
(463,132,l),
(333,178,l),
(245,71,l),
(235,-7,l),
(376,-38,l)
);
},
{
closed = 1;
nodes = (
(468,340,l),
(458,429,l),
(367,548,l),
(232,497,l),
(238,374,l),
(322,306,l)
);
}
);
width = 668;
}
);
unicode = 59;
},
{
glyphname = exclam;
lastChange = "2024-04-20 11:31:50 +0000";
layers = (
{
layerId = m01;
shapes = (
{
closed = 1;
nodes = (
(236,132,l),
(241,15,l),
(322,-49,l),
(463,-16,l),
(452,67,l),
(365,180,l)
);
},
{
closed = 1;
nodes = (
(334,248,l),
(383,276,l),
(438,447,l),
(429,806,l),
(357,860,l),
(211,858,l),
(184,724,l),
(270,272,l)
);
}
);
width = 668;
}
);
unicode = 33;
},
{
glyphname = question;
lastChange = "2024-04-20 11:31:50 +0000";
layers = (
{
layerId = m01;
shapes = (
{
closed = 1;
nodes = (
(236,132,l),
(241,14,l),
(322,-49,l),
(462,-17,l),
(452,67,l),
(364,180,l)
);
},
{
closed = 1;
nodes = (
(392,447,l),
(398,331,l),
(363,283,l),
(253,291,l),
(234,392,l),
(302,556,l),
(379,549,l),
(363,637,l),
(125,621,l),
(230,820,l),
(549,889,l),
(586,553,l)
);
},
{
closed = 1;
nodes = (
(70,525,l),
(85,755,l),
(113,875,l),
(395,908,l),
(412,759,l),
(292,724,l),
(248,561,l),
(199,495,l)
);
}
);
width = 668;
}
);
unicode = 63;
},
{
glyphname = bullet;
lastChange = "2024-04-20 11:31:50 +0000";
layers = (
{
layerId = m01;
shapes = (
{
closed = 1;
nodes = (
(331,538,l),
(411,482,l),
(466,375,l),
(395,236,l),
(223,300,l),
(206,460,l)
);
}
);
width = 668;
}
);
unicode = 8226;
},
{
glyphname = asterisk;
lastChange = "2024-04-20 11:31:50 +0000";
layers = (
{
layerId = m01;
shapes = (
{
closed = 1;
nodes = (
(486,447,l),
(469,612,l),
(312,587,l),
(375,494,l),
(344,471,l),
(347,347,l),
(458,336,l)
);
},
{
closed = 1;
nodes = (
(452,569,l),
(458,679,l),
(328,725,l),
(240,618,l),
(230,539,l),
(371,509,l)
);
},
{
closed = 1;
nodes = (
(555,716,l),
(391,736,l),
(380,577,l),
(484,618,l),
(500,581,l),
(620,558,l),
(656,662,l)
);
},
{
closed = 1;
nodes = (
(324,849,l),
(256,698,l),
(405,640,l),
(397,752,l),
(437,756,l),
(494,865,l),
(406,930,l)
);
},
{
closed = 1;
nodes = (
(133,682,l),
(250,565,l),
(357,684,l),
(249,715,l),
(259,754,l),
(178,847,l),
(86,787,l)
);
},
{
closed = 1;
nodes = (
(219,445,l),
(370,511,l),
(300,654,l),
(230,565,l),
(198,589,l),
(82,548,l),
(105,439,l)
);
}
);
width = 668;
}
);
unicode = 42;
},
{
glyphname = dieresis;
lastChange = "2024-04-20 11:48:35 +0000";
layers = (
{
anchors = (
{
name = _top;
pos = (221,582);
}
);
layerId = m01;
shapes = (
{
closed = 1;
nodes = (
(280,626,l),
(399,628,l),
(464,707,l),
(436,848,l),
(351,840,l),
(236,756,l)
);
},
{
closed = 1;
nodes = (
(184,829,l),
(67,827,l),
(0,748,l),
(29,607,l),
(113,615,l),
(228,698,l)
);
}
);
width = 464;
}
);
unicode = 168;
},
{
glyphname = grave;
lastChange = "2024-04-20 11:47:55 +0000";
layers = (
{
anchors = (
{
name = _top;
pos = (161,560);
}
);
layerId = m01;
shapes = (
{
closed = 1;
nodes = (
(219,789,l),
(290,674,l),
(281,603,l),
(181,612,l),
(52,728,l),
(100,821,l)
);
}
);
width = 300;
}
);
unicode = 96;
},
{
glyphname = acute;
lastChange = "2024-04-20 11:53:36 +0000";
layers = (
{
anchors = (
{
name = _top;
pos = (146,560);
}
);
layerId = m01;
shapes = (
{
closed = 1;
nodes = (
(290,728,l),
(161,612,l),
(61,603,l),
(52,674,l),
(123,789,l),
(242,821,l)
);
}
);
width = 300;
}
);
unicode = 180;
},
{
glyphname = circumflex;
lastChange = "2024-04-20 11:56:30 +0000";
layers = (
{
anchors = (
{
name = _top;
pos = (236,569);
}
);
layerId = m01;
shapes = (
{
closed = 1;
nodes = (
(35,597,l),
(104,586,l),
(225,665,l),
(248,788,l),
(115,783,l),
(-8,656,l)
);
},
{
closed = 1;
nodes = (
(315,815,l),
(182,820,l),
(205,697,l),
(346,592,l),
(415,603,l),
(458,662,l)
);
}
);
width = 466;
}
);
unicode = 710;
},
{
glyphname = caron;
lastChange = "2024-04-20 12:05:02 +0000";
layers = (
{
anchors = (
{
name = _top;
pos = (219,575);
}
);
layerId = m01;
shapes = (
{
closed = 1;
nodes = (
(123,653,l),
(256,648,l),
(233,771,l),
(112,850,l),
(43,839,l),
(0,780,l)
);
},
{
closed = 1;
nodes = (
(423,833,l),
(354,844,l),
(213,739,l),
(190,616,l),
(323,621,l),
(466,774,l)
);
}
);
width = 466;
}
);
unicode = 711;
},
{
glyphname = cedilla;
lastChange = "2024-04-20 12:24:57 +0000";
layers = (
{
anchors = (
{
name = _bottom;
pos = (185,88);
}
);
layerId = m01;
shapes = (
{
closed = 1;
nodes = (
(244,119,l),
(257,-67,l),
(168,-146,l),
(109,-111,l),
(109,-185,l),
(168,-199,l),
(202,-148,l),
(273,-177,l),
(292,-239,l),
(292,-297,l),
(126,-307,l),
(22,-266,l),
(-25,-199,l),
(0,-61,l),
(126,-20,l),
(62,29,l),
(61,129,l)
);
}
);
width = 300;
}
);
unicode = 184;
},
{
export = 0;
glyphname = _i;
lastChange = "2024-04-20 13:50:37 +0000";
layers = (
{
anchors = (
{
name = right;
pos = (371,413);
}
);
layerId = m01;
shapes = (
{
closed = 1;
nodes = (
(384,15,l),
(382,105,l),
(327,181,l),
(328,413,l),
(337,658,l),
(31,606,l),
(20,509,l),
(51,465,l),
(98,451,l),
(97,163,l),
(57,119,l),
(57,37,l),
(128,-26,l)
);
}
);
width = 677;
}
);
},
